<svg width="127" height="43" viewBox="0 0 127 43" fill="none" xmlns="http://www.w3.org/2000/svg">
<path d="M28.5059 31.8672H10.6348L6.62109 43H0.820312L17.1094 0.34375H22.0312L38.3496 43H32.5781L28.5059 31.8672ZM12.334 27.2383H26.8359L19.5703 7.28711L12.334 27.2383ZM58.0078 16.6914L68.2324 0.34375H74.8535L61.377 21.4961L75.1758 43H68.4961L58.0078 26.3594L47.4609 43H40.8105L54.6387 21.4961L41.1328 0.34375H47.7246L58.0078 16.6914Z" fill="white"/>
<path d="M87.7441 43H82.1191V0.34375H87.7441V43ZM126.65 4.97266H112.939V43H107.344V4.97266H93.6621V0.34375H126.65V4.97266Z" fill="#EC7979"/>
</svg>
